<!DOCTYPE svg PUBLIC "-//W3C//DTD SVG 1.1//EN" "http://www.w3.org/Graphics/SVG/1.1/DTD/svg11.dtd">
<!-- Uploaded to: SVG Repo, www.svgrepo.com, Transformed by: SVG Repo Mixer Tools -->
<svg width="100px" height="100px" viewBox="-6.4 -6.4 76.80 76.80" xmlns="http://www.w3.org/2000/svg" fill="#000000">
<g id="SVGRepo_bgCarrier" stroke-width="0">
<rect x="-6.4" y="-6.4" width="76.80" height="76.80" rx="38.4" fill="#7ed0ec" strokewidth="0"/>
</g>
<g id="SVGRepo_tracerCarrier" stroke-linecap="round" stroke-linejoin="round"/>
<g id="SVGRepo_iconCarrier"> <title>china</title> <g id="china"> <circle cx="24.5" cy="24.5" r="22.5" style="fill:#edebdc"/> <path d="M31.5,43A8.5,8.5,0,0,0,23,51.5V59h3V52.5a5.5,5.5,0,0,1,11,0V59h3V51.5A8.5,8.5,0,0,0,31.5,43Z" style="fill:#edebdc;stroke:#4c241d;stroke-linecap:round;stroke-linejoin:round;stroke-width:2px"/> <rect x="17" y="22" width="3" height="13" style="fill:#e66353;stroke:#4c241d;stroke-linecap:round;stroke-linejoin:round;stroke-width:2px"/> <rect x="43" y="22" width="3" height="13" style="fill:#e66353;stroke:#4c241d;stroke-linecap:round;stroke-linejoin:round;stroke-width:2px"/> <rect x="34" y="55" width="20" height="4" style="fill:#edebdc;stroke:#4c241d;stroke-linecap:round;stroke-linejoin:round;stroke-width:2px"/> <rect x="9" y="55" width="20" height="4" style="fill:#edebdc;stroke:#4c241d;stroke-linecap:round;stroke-linejoin:round;stroke-width:2px"/> <line x1="6" y1="59" x2="57" y2="59" style="fill:none;stroke:#4c241d;stroke-linecap:round;stroke-linejoin:round;stroke-width:2px"/> <rect x="48" y="37" width="3" height="18" style="fill:#e66353;stroke:#4c241d;stroke-linecap:round;stroke-linejoin:round;stroke-width:2px"/> <rect x="12" y="37" width="3" height="18" style="fill:#e66353;stroke:#4c241d;stroke-linecap:round;stroke-linejoin:round;stroke-width:2px"/> <rect x="40" y="39" width="3" height="16" style="fill:#e66353;stroke:#4c241d;stroke-linecap:round;stroke-linejoin:round;stroke-width:2px"/> <rect x="20" y="39" width="3" height="16" style="fill:#e66353;stroke:#4c241d;stroke-linecap:round;stroke-linejoin:round;stroke-width:2px"/> <polygon points="49 24 40 26 40 22 49 22 49 24" style="fill:#c1dbdc;stroke:#4c241d;stroke-linecap:round;stroke-linejoin:round;stroke-width:2px"/> <polygon points="55 41 46 43 46 39 55 37 55 41" style="fill:#c1dbdc;stroke:#4c241d;stroke-linecap:round;stroke-linejoin:round;stroke-width:2px"/> <polygon points="8 41 17 43 17 39 8 37 8 41" style="fill:#c1dbdc;stroke:#4c241d;stroke-linecap:round;stroke-linejoin:round;stroke-width:2px"/> <polygon points="14 24 23 26 23 22 14 22 14 24" style="fill:#c1dbdc;stroke:#4c241d;stroke-linecap:round;stroke-linejoin:round;stroke-width:2px"/> <rect x="37" y="22" width="3" height="13" style="fill:#e66353;stroke:#4c241d;stroke-linecap:round;stroke-linejoin:round;stroke-width:2px"/> <rect x="23" y="22" width="3" height="13" style="fill:#e66353;stroke:#4c241d;stroke-linecap:round;stroke-linejoin:round;stroke-width:2px"/> <path d="M20.119,21.983s-6.85.423-10.044-2.979C19.425,20.569,32,12,32,12s13.575,8.569,22.925,7c-3.194,3.4-10.044,2.979-10.044,2.979Z" style="fill:#ffce56;stroke:#4c241d;stroke-linecap:round;stroke-linejoin:round;stroke-width:2px"/> <line x1="32" y1="12" x2="32" y2="9" style="fill:none;stroke:#4c241d;stroke-linecap:round;stroke-linejoin:round;stroke-width:2px"/> <rect x="43" y="49" width="5" height="5" style="fill:#c1dbdc;stroke:#4c241d;stroke-linecap:round;stroke-linejoin:round;stroke-width:2px"/> <rect x="15" y="50" width="5" height="5" style="fill:#c1dbdc;stroke:#4c241d;stroke-linecap:round;stroke-linejoin:round;stroke-width:2px"/> <line x1="34" y1="53" x2="34" y2="58" style="fill:none;stroke:#4c241d;stroke-linecap:round;stroke-linejoin:round;stroke-width:2px"/> <path d="M2.218,35.636s30.347,9.819,59.1,0L45.342,34H18.19Z" style="fill:#ffce56;stroke:#4c241d;stroke-linecap:round;stroke-linejoin:round;stroke-width:2px"/> <line x1="29" y1="53" x2="29" y2="58" style="fill:none;stroke:#4c241d;stroke-linecap:round;stroke-linejoin:round;stroke-width:2px"/> </g> </g>
</svg>